<svg width="16" height="16" viewBox="0 0 16 16" fill="none" xmlns="http://www.w3.org/2000/svg">
<g clip-path="url(#clip0_500_165)">
<path d="M1.33331 8C1.33331 4.33334 4.33331 1.33334 7.99998 1.33334C9.03495 1.33334 10.0557 1.5743 10.9814 2.03715C11.9071 2.50001 12.7123 3.17203 13.3333 4" stroke="white" stroke-width="2" stroke-linecap="round" stroke-linejoin="round"/>
<path d="M3.33331 13C3.66665 12 3.99998 10 3.99998 8C3.99998 7.53333 4.07998 7.08666 4.22665 6.66666" stroke="white" stroke-width="2" stroke-linecap="round" stroke-linejoin="round"/>
<path d="M11.5267 14.0133C11.6067 13.6133 11.8133 12.48 11.86 12" stroke="white" stroke-width="2" stroke-linecap="round" stroke-linejoin="round"/>
<path d="M8.00001 6.66666C7.64639 6.66666 7.30725 6.80714 7.05721 7.05719C6.80716 7.30724 6.66668 7.64638 6.66668 8C6.66668 8.68 6.60001 9.67333 6.49335 10.6667" stroke="white" stroke-width="2" stroke-linecap="round" stroke-linejoin="round"/>
<path d="M5.76666 14.6667C5.90666 14.2267 6.06666 13.7867 6.14666 13.3333" stroke="white" stroke-width="2" stroke-linecap="round" stroke-linejoin="round"/>
<path d="M9.33335 8.74667C9.33335 10.3333 9.33335 13 8.66669 14.6667" stroke="white" stroke-width="2" stroke-linecap="round" stroke-linejoin="round"/>
<path d="M1.33331 10.6667H1.33998" stroke="white" stroke-width="2" stroke-linecap="round" stroke-linejoin="round"/>
<path d="M14.5333 10.6667C14.6667 9.33333 14.6207 7.09733 14.5333 6.66666" stroke="white" stroke-width="2" stroke-linecap="round" stroke-linejoin="round"/>
<path d="M6 4.53334C6.60827 4.18215 7.29828 3.99732 8.00064 3.99744C8.70301 3.99755 9.39296 4.1826 10.0011 4.53398C10.6093 4.88535 11.1142 5.39067 11.4651 5.9991C11.816 6.60754 12.0005 7.29764 12 8C12 8.31333 12 8.78 11.9867 9.33333" stroke="white" stroke-width="2" stroke-linecap="round" stroke-linejoin="round"/>
</g>
<defs>
<clipPath id="clip0_500_165">
<rect width="16" height="16" fill="white"/>
</clipPath>
</defs>
</svg>
